<svg width="50" height="50" viewBox="0 0 50 50" fill="none" xmlns="http://www.w3.org/2000/svg">
<path d="M42.1266 22.8147C43.3416 22.6448 44.2023 21.5165 43.8841 20.3317C43.0225 17.1231 41.2851 14.2004 38.8466 11.9018C35.8668 9.093 32.0183 7.38417 27.9363 7.0574C23.8544 6.73063 19.7831 7.80547 16.3944 10.1045C13.0057 12.4035 10.5022 15.7893 9.29707 19.7029C8.09199 23.6166 8.25738 27.8241 9.76595 31.6311C11.2745 35.4381 14.0361 38.6169 17.5948 40.6428C21.1535 42.6687 25.2967 43.4207 29.3403 42.7745C32.6494 42.2457 35.73 40.8065 38.2472 38.6384C39.1767 37.8377 39.0998 36.4207 38.1908 35.5968V35.5968C37.2819 34.7729 35.8864 34.8592 34.9253 35.6216C33.1117 37.0601 30.9494 38.0184 28.6393 38.3875C25.5937 38.8742 22.4731 38.3079 19.7927 36.782C17.1123 35.2561 15.0323 32.8618 13.8961 29.9945C12.7599 27.1271 12.6353 23.958 13.5429 21.0103C14.4506 18.0626 16.3362 15.5125 18.8886 13.7809C21.4409 12.0493 24.5074 11.2397 27.5818 11.4858C30.6563 11.732 33.5549 13.019 35.7993 15.1346C37.5017 16.7393 38.7504 18.7479 39.4407 20.9574C39.8065 22.1284 40.9117 22.9846 42.1266 22.8147V22.8147Z" fill="#EAEAEA"/>
<path d="M41.5 21L5.5 34" stroke="#EAEAEA" stroke-width="4" stroke-linecap="round"/>
</svg>
